<?xml version="1.0" standalone="no"?>
<!DOCTYPE svg PUBLIC "-//W3C//DTD SVG 20010904//EN"
 "http://www.w3.org/TR/2001/REC-SVG-20010904/DTD/svg10.dtd">
<svg version="1.0" xmlns="http://www.w3.org/2000/svg"
 width="1280.000000pt" height="704.000000pt" viewBox="0 0 1280.000000 704.000000"
 preserveAspectRatio="xMidYMid meet">

<g transform="translate(0.000000,704.000000) scale(0.100000,-0.100000)"
fill="#000000" stroke="none">
<path d="M0 3520 l0 -3520 6400 0 6400 0 0 3520 0 3520 -6400 0 -6400 0 0
-3520z m9682 3015 c32 -4 60 -11 63 -16 4 -5 16 -9 29 -9 22 0 183 -104 222
-144 39 -40 74 -93 74 -112 0 -37 54 -162 90 -209 4 -5 18 -48 29 -95 12 -47
29 -106 37 -132 11 -34 18 -122 25 -315 5 -147 10 -281 11 -298 0 -16 -6 -96
-15 -177 -20 -180 -12 -275 26 -317 14 -14 36 -44 50 -66 47 -76 96 -105 179
-105 20 0 40 -5 43 -10 4 -7 12 -7 25 0 10 6 64 12 120 15 127 6 172 30 211
110 24 50 41 78 53 86 5 4 5 22 1 40 -4 19 -10 81 -13 139 -4 58 -13 115 -19
127 -7 12 -13 37 -13 56 0 19 -7 40 -15 47 -8 7 -15 20 -15 30 0 9 -9 29 -20
43 -11 14 -20 29 -20 35 0 5 -9 17 -20 27 -32 29 -61 81 -75 136 -8 28 -21 59
-30 69 -8 9 -13 24 -10 33 4 8 -5 37 -19 64 -14 26 -26 58 -26 70 0 12 -4 25
-10 28 -14 8 -13 88 1 102 8 8 8 20 -2 46 -10 29 -10 41 4 76 10 23 17 50 17
61 0 29 45 103 70 116 20 11 38 34 56 74 11 24 67 80 80 80 6 0 30 18 53 40
23 22 72 57 109 77 37 20 92 52 122 71 106 67 117 72 185 72 37 0 82 7 106 17
34 13 47 14 73 5 18 -7 45 -12 60 -12 15 0 40 -6 54 -14 15 -8 47 -20 72 -27
62 -17 98 -36 147 -75 23 -19 46 -34 51 -34 10 0 132 -118 197 -191 40 -44 52
-59 90 -115 11 -16 30 -38 42 -49 13 -11 23 -24 23 -29 0 -4 8 -20 19 -34 10
-15 24 -44 30 -65 7 -21 23 -50 35 -65 27 -33 56 -103 56 -137 0 -13 4 -26 9
-29 14 -9 21 -69 25 -228 3 -85 1 -150 -5 -153 -5 -4 -9 -17 -9 -30 0 -13 -4
-27 -10 -30 -5 -3 -10 -35 -10 -70 0 -47 -4 -64 -15 -69 -8 -3 -15 -13 -15
-23 0 -10 -9 -24 -20 -31 -11 -7 -20 -21 -20 -32 0 -12 -7 -23 -15 -26 -8 -4
-15 -11 -15 -18 0 -6 -9 -17 -20 -24 -11 -7 -20 -18 -20 -25 0 -15 -59 -73
-107 -106 -17 -12 -48 -44 -68 -71 -20 -27 -44 -52 -55 -55 -16 -5 -55 -56
-69 -90 -2 -5 -15 -23 -27 -38 -13 -16 -24 -34 -24 -40 0 -7 -10 -24 -22 -37
-13 -14 -45 -59 -73 -100 -27 -40 -65 -88 -84 -104 -64 -57 -94 -92 -117 -132
-6 -10 -24 -28 -41 -39 -17 -11 -36 -33 -43 -48 -7 -16 -22 -38 -34 -50 -26
-26 -106 -145 -106 -157 0 -5 -4 -10 -9 -12 -5 -1 -28 -39 -51 -83 -24 -44
-51 -92 -62 -107 -10 -14 -18 -33 -18 -41 0 -8 -7 -20 -15 -27 -8 -7 -15 -21
-15 -31 0 -11 -4 -27 -9 -37 -5 -9 -16 -37 -24 -62 -8 -25 -26 -76 -40 -115
-13 -38 -30 -90 -37 -115 -7 -25 -16 -54 -20 -65 -7 -17 -18 -117 -25 -228 -1
-15 -5 -30 -8 -34 -4 -3 -7 -26 -7 -50 0 -24 -5 -75 -11 -113 -8 -49 -9 -73
-1 -82 5 -7 10 -29 10 -48 0 -35 34 -106 79 -166 13 -17 23 -43 23 -57 0 -14
5 -29 10 -32 6 -3 10 -15 10 -26 0 -10 4 -19 9 -19 5 0 11 -8 15 -18 3 -9 9
-24 14 -32 27 -48 42 -84 42 -105 0 -13 4 -26 9 -29 5 -4 12 -30 16 -59 4 -28
10 -61 12 -72 3 -11 4 -29 4 -40 -1 -11 -1 -36 -1 -55 6 -145 -7 -300 -26
-300 -8 0 -14 -8 -14 -19 0 -10 -12 -40 -26 -67 -26 -48 -42 -70 -120 -163
-23 -27 -43 -53 -45 -58 -6 -14 -99 -63 -120 -63 -10 0 -20 -4 -24 -9 -3 -6
-27 -13 -53 -16 -26 -4 -56 -10 -67 -16 -42 -18 -158 -29 -335 -29 -116 -1
-187 3 -193 9 -6 6 -35 11 -64 11 -29 0 -53 4 -53 9 0 5 -10 12 -22 16 -64 18
-117 46 -224 120 -83 57 -174 147 -174 171 0 6 -7 18 -16 25 -9 7 -20 22 -25
34 -5 11 -13 27 -18 35 -29 51 -41 81 -41 103 0 13 -8 39 -17 58 -10 20 -19
70 -23 124 -3 50 -9 95 -13 102 -4 6 -9 57 -12 113 -4 82 -2 106 9 119 10 11
15 47 17 125 1 59 9 138 17 175 8 36 16 89 19 118 3 29 11 57 19 64 8 6 14 27
14 46 0 20 9 48 22 65 15 22 24 55 30 112 8 85 11 107 26 196 5 30 7 59 5 63
-3 4 -7 70 -9 145 -7 214 -13 254 -43 302 -9 14 -25 40 -36 58 -11 17 -25 32
-31 32 -6 0 -33 26 -60 58 -27 31 -53 59 -59 61 -5 2 -30 23 -55 47 -25 23
-83 68 -130 99 -47 32 -96 67 -110 79 -14 13 -42 30 -62 40 -20 9 -40 21 -43
26 -3 6 -15 10 -26 10 -25 0 -120 53 -146 82 -11 13 -26 45 -33 71 l-13 49
-23 -29 c-13 -15 -23 -35 -24 -44 0 -9 -7 -22 -15 -29 -8 -7 -15 -18 -15 -24
0 -19 -53 -118 -95 -181 -12 -16 -45 -78 -75 -137 -30 -60 -58 -108 -62 -108
-4 0 -8 -7 -8 -16 0 -9 -15 -49 -34 -88 -18 -39 -41 -89 -51 -111 -9 -22 -25
-57 -36 -78 -10 -22 -19 -46 -19 -55 0 -10 -7 -30 -15 -46 -8 -15 -15 -43 -15
-60 0 -18 -3 -36 -7 -39 -18 -19 -22 -272 -3 -291 5 -5 10 -22 10 -37 0 -15 5
-31 10 -34 6 -3 10 -19 10 -35 0 -16 4 -32 10 -35 12 -7 34 -56 50 -110 14
-45 61 -123 90 -150 11 -10 20 -24 20 -32 0 -24 37 -97 59 -117 12 -11 21 -25
21 -32 0 -7 10 -25 23 -41 13 -15 31 -45 41 -65 9 -21 21 -38 26 -38 6 0 10
-9 10 -19 0 -11 3 -21 8 -23 4 -1 15 -19 25 -38 10 -19 33 -61 52 -94 31 -51
35 -67 35 -125 0 -38 5 -72 12 -79 9 -9 9 -18 0 -37 -7 -14 -12 -36 -12 -48 0
-22 -22 -93 -39 -125 -13 -24 -42 -103 -47 -127 -4 -18 -131 -155 -145 -155
-4 0 -34 -15 -67 -34 -36 -20 -87 -39 -129 -46 -60 -11 -82 -10 -182 8 -63 12
-117 25 -120 30 -3 5 -25 12 -49 16 -24 3 -51 10 -60 15 -9 5 -57 29 -107 54
-73 36 -98 55 -132 98 -23 30 -42 60 -43 67 0 6 -4 12 -10 12 -5 0 -10 10 -10
22 0 12 -7 29 -15 38 -8 9 -16 32 -19 52 -2 19 -11 49 -20 66 -17 34 -21 122
-7 150 23 44 30 70 30 112 0 25 5 79 11 120 6 41 14 95 17 120 3 25 9 50 15
57 6 7 6 18 -1 30 -6 12 -6 25 0 34 5 7 9 49 9 91 0 43 5 80 10 83 7 4 7 11 2
18 -9 12 -13 32 -32 187 -5 41 -14 100 -20 130 -6 30 -11 62 -11 70 -1 15 -6
31 -27 80 -6 14 -14 45 -17 70 -13 86 -69 141 -115 112 -12 -7 -21 -8 -25 -2
-17 27 -109 5 -177 -42 -14 -10 -31 -18 -37 -18 -24 0 -86 -54 -117 -102 -19
-29 -34 -56 -34 -61 0 -5 -11 -22 -25 -39 -14 -16 -25 -38 -25 -48 0 -10 -5
-20 -11 -22 -17 -6 -79 -167 -86 -223 -3 -27 -9 -54 -13 -60 -4 -5 -13 -35
-20 -65 -7 -30 -18 -62 -24 -70 -28 -38 -38 -67 -43 -131 -3 -38 -10 -69 -14
-69 -5 0 -9 -9 -9 -21 0 -11 -6 -33 -14 -47 -8 -15 -21 -49 -28 -75 -7 -27
-21 -53 -30 -58 -10 -5 -18 -16 -18 -23 0 -8 -6 -19 -13 -25 -8 -6 -22 -37
-32 -68 -11 -32 -23 -62 -27 -68 -4 -5 -8 -20 -8 -32 0 -23 -83 -123 -101
-123 -5 0 -36 -21 -68 -47 -33 -27 -74 -53 -93 -59 -18 -7 -58 -21 -88 -33
-30 -12 -77 -29 -105 -37 -67 -21 -375 -30 -475 -14 -41 6 -122 15 -180 19
-119 10 -245 40 -260 63 -3 4 -35 18 -70 31 -77 28 -112 49 -174 101 l-46 38
-49 -26 c-63 -32 -151 -66 -173 -66 -10 0 -35 -9 -56 -20 -33 -17 -60 -21
-163 -22 -109 -1 -129 1 -168 20 -25 12 -53 22 -63 22 -57 0 -124 48 -264 190
-84 85 -94 99 -94 131 0 20 -7 42 -15 49 -8 7 -15 27 -15 44 0 17 -9 42 -20
56 -11 14 -20 40 -20 58 0 19 -6 46 -14 60 -24 47 -46 102 -46 116 0 7 -9 25
-20 39 -11 14 -20 37 -20 50 0 14 -4 28 -9 32 -12 7 -61 113 -61 132 0 7 -6
16 -14 19 -8 3 -18 20 -22 37 -7 34 -61 117 -76 117 -5 0 -6 9 -3 20 7 23 -50
109 -73 110 -7 0 -28 11 -46 25 -29 22 -43 25 -113 25 -59 0 -84 -4 -93 -15
-7 -8 -18 -15 -25 -15 -19 0 -58 -58 -78 -115 -20 -58 -36 -196 -29 -243 2
-18 -1 -52 -7 -75 -6 -23 -13 -58 -15 -77 -2 -19 -6 -42 -9 -50 -3 -8 -12 -51
-21 -95 -9 -43 -21 -82 -25 -85 -5 -3 -15 -25 -22 -50 -7 -25 -30 -75 -51
-112 -21 -37 -38 -70 -38 -72 0 -20 -86 -133 -145 -191 -39 -38 -82 -88 -95
-110 -25 -43 -148 -175 -164 -175 -5 0 -30 -15 -56 -34 -64 -46 -176 -106
-198 -106 -10 0 -23 -5 -29 -11 -5 -5 -39 -17 -74 -26 -82 -20 -412 -24 -431
-5 -7 7 -30 12 -51 12 -34 0 -102 23 -117 39 -3 4 -21 14 -40 24 -67 34 -210
135 -210 149 0 5 -20 30 -43 56 -56 60 -127 217 -127 280 0 12 -4 23 -9 26 -9
6 -11 18 -31 161 -32 226 -31 415 2 540 6 22 14 76 18 120 3 44 16 110 28 147
12 36 23 89 23 117 1 28 6 54 10 57 5 3 9 31 9 63 0 32 3 61 7 65 5 4 9 22 10
39 1 18 7 57 13 87 35 176 35 359 0 451 -10 29 -17 56 -14 60 2 4 0 10 -6 14
-5 3 -10 14 -10 23 -1 33 -182 278 -227 307 -35 22 -66 50 -157 140 -92 91
-118 122 -151 181 -15 27 -33 56 -39 64 -15 18 -46 84 -46 97 0 6 -8 25 -17
44 -30 58 -43 102 -49 164 -4 33 -16 79 -27 103 -16 35 -19 64 -19 170 -1 223
4 332 13 332 5 0 9 10 9 23 0 31 26 101 63 172 40 77 141 211 170 226 12 7 45
31 72 54 68 57 243 135 304 135 9 0 21 4 27 10 5 5 72 10 149 11 77 0 147 5
156 10 9 5 29 4 45 -1 16 -5 63 -16 104 -26 41 -10 89 -26 105 -36 17 -10 38
-18 48 -18 55 0 267 -137 267 -173 0 -5 22 -32 50 -60 27 -28 50 -57 50 -64 0
-7 4 -13 9 -13 4 0 29 -42 55 -92 26 -51 51 -100 55 -108 26 -45 65 -145 82
-210 17 -68 1 -362 -22 -385 -5 -5 -9 -31 -9 -57 0 -29 -7 -59 -17 -75 -14
-21 -18 -51 -19 -137 -2 -127 -11 -222 -23 -251 -37 -85 -43 -137 -40 -320 3
-129 8 -188 17 -197 6 -6 12 -27 12 -45 0 -19 7 -50 16 -71 9 -20 17 -45 19
-54 8 -36 43 -104 64 -122 11 -11 21 -24 21 -30 0 -7 19 -31 43 -54 36 -36 49
-42 84 -42 23 0 45 -4 48 -10 3 -5 22 -10 41 -10 19 0 34 5 34 10 0 6 12 10
27 10 44 0 132 49 150 84 8 17 23 39 31 49 15 17 26 137 23 242 -7 203 -4 374
5 386 6 8 14 26 18 41 7 29 80 95 141 126 22 11 49 29 59 41 11 12 29 21 42
21 13 0 26 5 29 10 3 6 19 10 35 10 16 0 32 5 35 10 8 14 127 13 162 -1 15 -6
37 -15 48 -19 72 -29 118 -56 137 -81 13 -17 37 -47 54 -67 32 -38 84 -140 84
-164 0 -8 4 -18 8 -24 8 -9 46 -118 48 -139 1 -10 6 -26 24 -70 24 -62 115
-235 138 -262 15 -18 38 -48 52 -67 33 -47 102 -96 134 -96 13 0 28 -4 31 -10
8 -13 112 -13 120 0 3 6 23 10 43 10 20 0 46 7 56 15 11 8 27 15 36 15 21 0
52 34 80 90 12 25 26 52 31 60 43 75 49 100 49 204 0 75 -4 108 -14 118 -7 8
-17 29 -21 47 -7 31 -51 120 -82 166 -7 11 -13 29 -13 41 0 11 -9 29 -20 39
-11 10 -20 22 -20 28 0 5 -13 26 -30 47 -16 21 -30 42 -30 48 0 5 -15 26 -33
45 -46 50 -81 97 -103 137 -10 19 -21 37 -24 40 -13 12 -60 79 -60 85 0 3 -11
23 -25 45 -14 22 -25 46 -25 54 0 7 -7 19 -14 26 -17 13 -45 73 -69 145 -13
37 -18 91 -19 208 -2 141 0 160 15 168 11 7 17 22 17 46 0 20 7 43 15 52 52
57 155 181 155 188 2 20 225 203 249 203 8 0 19 6 25 14 16 22 145 86 171 86
13 0 25 7 29 15 3 9 18 15 34 15 16 0 44 8 63 17 34 17 128 34 184 33 17 0 41
-1 55 -1 14 -1 46 2 71 6 39 6 60 2 125 -23 44 -17 108 -33 144 -36 35 -3 69
-11 74 -16 6 -6 20 -10 32 -10 26 0 90 -26 99 -40 3 -5 19 -10 35 -10 15 0 30
-7 34 -15 7 -19 26 -20 26 0 0 8 11 31 25 51 14 20 25 42 25 48 0 17 122 139
184 185 29 21 77 51 107 66 30 15 63 32 74 38 11 6 67 14 125 18 58 4 120 11
138 14 20 5 53 2 85 -8 29 -8 77 -20 107 -27 81 -19 104 -33 195 -124 60 -60
92 -102 123 -162 23 -45 48 -87 57 -94 8 -7 15 -17 15 -22 0 -9 36 -87 64
-138 8 -14 27 -51 42 -83 25 -54 26 -62 15 -105 -7 -28 -11 -124 -11 -242 0
-107 -1 -244 -2 -305 -2 -107 -2 -267 0 -412 1 -40 5 -81 11 -91 5 -10 11 -49
12 -86 1 -37 6 -69 11 -72 4 -3 8 -23 8 -44 0 -21 5 -42 10 -45 6 -3 10 -19
10 -34 0 -16 10 -37 25 -51 14 -13 25 -29 25 -35 0 -24 85 -93 125 -100 70
-14 176 -4 232 21 17 8 35 14 40 14 18 0 102 96 109 125 4 17 18 47 31 69 30
47 65 126 56 126 -4 0 -2 5 5 12 7 7 12 43 12 93 0 92 -26 182 -59 204 -12 7
-21 20 -21 27 0 8 -4 22 -9 32 -19 39 -34 90 -39 132 -2 25 -10 49 -18 53 -7
4 -30 37 -50 72 -19 36 -39 65 -42 65 -4 0 -12 8 -17 18 -28 50 -51 82 -61 82
-13 0 -130 154 -151 200 -3 8 -11 18 -16 21 -4 3 -11 26 -14 50 -3 24 -9 46
-13 49 -17 12 -40 72 -40 103 0 18 -6 39 -12 45 -10 10 -10 17 0 33 11 16 11
24 1 35 -7 9 -13 43 -12 77 0 69 25 135 72 190 15 18 34 41 42 53 20 29 109
133 140 164 25 24 90 50 127 50 10 0 22 4 28 8 19 18 175 53 234 54 53 0 267
-21 305 -31 22 -6 67 -11 100 -11 34 0 65 -4 70 -8 6 -5 30 -14 55 -21 25 -7
52 -17 60 -22 8 -5 32 -17 53 -26 20 -9 37 -20 37 -25 0 -4 6 -8 13 -8 12 0
82 -51 122 -88 11 -11 38 -29 60 -41 23 -12 45 -30 50 -40 30 -52 51 -81 60
-78 6 2 15 31 20 64 6 34 13 65 18 69 4 4 7 17 7 29 0 12 7 30 15 41 8 10 15
26 15 35 0 9 6 22 14 28 8 7 18 27 21 44 4 18 14 40 23 50 8 9 20 27 26 39 12
24 160 129 222 157 22 10 71 22 109 26 38 4 76 11 84 16 17 10 194 27 226 23
11 -2 46 -6 77 -9z"/>
<path d="M9445 6430 c-3 -5 -28 -10 -54 -10 -34 0 -67 -10 -118 -35 -39 -19
-73 -35 -76 -35 -2 0 -35 -20 -72 -45 -56 -37 -76 -57 -111 -117 -24 -40 -46
-89 -49 -108 -4 -19 -11 -43 -16 -53 -6 -10 -13 -73 -16 -140 -3 -67 -11 -128
-17 -136 -8 -10 -4 -19 17 -37 15 -13 27 -32 27 -42 0 -10 9 -27 21 -38 12
-10 36 -51 55 -90 l34 -71 2 -189 c3 -204 -3 -299 -21 -317 -6 -6 -11 -28 -11
-49 0 -21 -4 -38 -9 -38 -5 0 -12 -36 -16 -80 -4 -44 -11 -83 -16 -86 -5 -3
-9 -18 -9 -33 0 -15 -3 -31 -7 -35 -5 -4 -8 -11 -9 -14 -4 -34 -18 -83 -25
-88 -12 -7 -12 -101 0 -108 4 -3 11 -23 14 -44 4 -21 14 -54 23 -73 23 -47
122 -142 164 -158 117 -45 240 -115 325 -183 6 -5 39 -30 75 -57 86 -64 200
-185 226 -241 53 -114 66 -147 70 -179 3 -19 9 -40 13 -45 9 -11 27 -140 23
-166 -8 -60 -9 -90 -1 -90 5 0 4 -12 -1 -26 -6 -14 -10 -52 -10 -85 0 -33 -4
-68 -9 -78 -6 -9 -17 -60 -26 -112 -9 -51 -20 -98 -25 -104 -4 -5 -11 -37 -14
-70 -7 -62 -11 -79 -45 -225 -11 -47 -20 -103 -20 -125 0 -22 -5 -60 -11 -85
-6 -25 -13 -64 -15 -87 -2 -24 -7 -48 -11 -54 -21 -35 -26 -301 -6 -321 7 -7
12 -22 12 -34 0 -56 105 -167 207 -219 32 -16 75 -44 96 -62 22 -17 56 -34 78
-38 21 -4 39 -10 39 -14 0 -9 104 -41 133 -41 13 0 28 -5 33 -10 6 -6 108 -11
255 -12 l244 -2 75 39 c41 22 93 52 114 67 21 15 43 28 48 28 4 0 30 17 57 38
70 53 90 102 97 232 2 58 4 111 4 118 -1 57 -4 78 -11 88 -5 6 -8 27 -7 47 1
22 -5 44 -15 55 -10 10 -17 24 -17 30 0 14 -14 40 -56 102 -31 45 -41 66 -84
170 -12 30 -28 70 -36 88 -8 18 -14 47 -14 65 0 18 -7 42 -15 54 -20 29 -25
334 -6 357 9 11 9 16 1 21 -14 9 -5 80 16 131 8 19 12 39 9 45 -4 5 1 16 9 25
9 8 16 26 16 38 0 13 9 31 20 41 11 10 20 28 20 40 0 13 7 28 15 35 8 7 15 20
15 29 0 18 35 81 54 96 7 6 31 51 55 100 23 50 47 98 52 107 5 10 9 26 9 37 0
10 7 21 15 24 8 4 26 30 41 59 15 29 30 55 35 56 5 2 9 9 9 16 0 7 9 21 20 31
11 10 20 22 20 28 0 5 14 26 30 47 19 24 30 50 30 69 0 19 5 31 13 31 18 0 54
40 59 65 2 11 12 24 23 29 12 5 29 26 39 46 10 20 60 81 112 136 51 54 94 104
94 110 0 14 43 54 58 54 7 0 12 7 12 16 0 8 15 30 33 48 37 38 46 50 72 91 26
40 50 68 113 131 28 29 52 55 52 58 0 11 35 46 46 46 6 0 17 11 24 25 7 14 17
25 22 25 4 0 8 6 8 13 0 8 9 22 19 31 19 18 81 135 81 154 0 6 13 31 29 55 19
27 33 65 39 103 10 64 4 283 -8 299 -4 6 -13 27 -19 47 -7 20 -19 42 -27 48
-7 7 -14 22 -14 33 0 11 -16 54 -35 95 -28 58 -56 94 -126 165 -50 51 -95 100
-100 109 -5 10 -14 18 -19 18 -12 0 -39 21 -110 88 -31 28 -62 52 -68 52 -6 0
-27 14 -45 30 -19 17 -43 30 -54 30 -11 0 -38 9 -61 20 -22 11 -58 20 -80 20
-21 0 -42 4 -48 10 -20 20 -102 24 -128 6 -14 -9 -43 -16 -65 -16 -22 0 -43
-4 -46 -10 -3 -5 -23 -10 -44 -10 -27 0 -44 -7 -61 -25 -13 -14 -27 -25 -31
-25 -4 0 -44 -25 -90 -56 -126 -85 -202 -163 -254 -266 -25 -48 -45 -93 -45
-101 0 -8 -7 -28 -16 -46 -11 -22 -13 -41 -8 -59 4 -15 7 -43 5 -63 -1 -20 2
-40 8 -44 6 -3 11 -14 11 -25 0 -10 16 -41 35 -70 20 -29 35 -65 35 -80 0 -16
5 -32 10 -35 6 -3 10 -14 10 -24 0 -10 7 -24 15 -31 20 -17 79 -125 100 -185
10 -27 32 -80 50 -116 23 -46 35 -88 40 -140 4 -40 12 -81 18 -91 8 -13 8 -26
-1 -51 -7 -18 -12 -59 -12 -90 0 -62 -14 -95 -70 -168 -51 -67 -109 -119 -132
-119 -11 0 -34 -7 -51 -16 -18 -9 -41 -22 -52 -27 -11 -6 -58 -13 -105 -15
-47 -2 -89 -8 -94 -13 -5 -4 -16 -4 -25 0 -9 5 -41 11 -72 14 -31 3 -65 10
-75 15 -11 5 -32 16 -49 23 -67 30 -179 134 -189 176 -4 15 -21 56 -37 91 -26
56 -29 72 -29 166 0 57 4 106 10 108 5 2 12 53 16 113 4 61 11 115 16 122 5 7
11 52 14 100 7 147 12 212 19 223 3 5 2 17 -3 26 -6 11 -5 30 1 51 9 30 8 37
-6 48 -9 7 -17 22 -17 33 0 11 -4 24 -10 27 -5 3 -10 30 -10 58 0 54 -20 97
-45 97 -14 0 -31 37 -21 47 3 3 -4 24 -15 47 -12 23 -27 52 -34 66 -7 14 -13
41 -13 61 0 41 -21 86 -51 111 -12 10 -21 27 -21 38 0 11 -7 20 -15 20 -9 0
-15 9 -15 21 0 11 -6 26 -12 33 -25 24 -104 65 -158 81 -30 9 -64 20 -75 25
-81 31 -196 42 -210 20z"/>
<path d="M6377 6194 c-6 -6 -45 -11 -167 -20 -36 -3 -74 -9 -85 -13 -11 -5
-51 -21 -90 -36 -38 -16 -81 -39 -96 -52 -14 -12 -30 -23 -35 -23 -14 0 -64
-53 -64 -67 0 -7 -8 -14 -17 -17 -21 -7 -53 -59 -53 -87 0 -10 -5 -19 -11 -19
-6 0 -9 -12 -7 -27 3 -25 8 -28 43 -31 22 -2 47 -9 55 -16 8 -7 30 -19 48 -26
19 -7 52 -30 74 -51 22 -21 61 -48 87 -61 25 -13 59 -38 76 -57 16 -19 47 -54
68 -76 20 -23 37 -47 37 -53 0 -6 9 -17 19 -24 11 -8 23 -26 26 -40 4 -15 20
-41 36 -59 53 -60 94 -122 125 -189 9 -19 19 -37 23 -40 9 -6 41 -75 41 -87 0
-6 9 -18 20 -28 11 -10 20 -26 20 -35 0 -10 7 -23 15 -30 8 -7 15 -18 15 -25
0 -7 16 -42 35 -79 19 -37 35 -75 35 -85 0 -9 7 -26 15 -37 8 -10 15 -33 15
-51 0 -17 5 -35 10 -38 6 -3 10 -17 10 -30 0 -13 5 -27 10 -30 6 -3 10 -27 10
-53 0 -26 7 -60 15 -76 17 -32 20 -96 5 -96 -12 0 -13 -53 -1 -66 10 -10 18
-401 8 -424 -3 -8 -11 -41 -16 -72 -6 -32 -19 -76 -31 -100 -11 -23 -20 -49
-20 -59 0 -9 -16 -45 -35 -79 -19 -34 -35 -67 -35 -73 0 -15 -51 -118 -66
-134 -7 -7 -31 -52 -53 -100 -47 -98 -41 -89 -96 -168 -66 -96 -74 -109 -82
-125 -4 -8 -23 -31 -42 -50 -62 -62 -138 -158 -158 -200 -3 -8 -14 -22 -23
-30 -9 -8 -26 -30 -39 -48 -12 -17 -28 -32 -34 -32 -6 0 -50 -40 -97 -88 -47
-48 -110 -105 -140 -127 -30 -21 -76 -57 -102 -79 -69 -60 -164 -126 -182
-126 -8 0 -31 -15 -49 -34 -19 -18 -43 -37 -55 -40 -12 -4 -24 -15 -27 -25 -3
-11 -13 -22 -23 -25 -9 -3 -30 -15 -47 -26 -16 -11 -43 -26 -60 -34 -28 -13
-28 -14 -10 -22 11 -4 31 -16 45 -25 40 -29 265 -95 370 -110 79 -10 301 -48
330 -56 37 -9 283 -12 295 -3 6 4 37 11 69 15 69 8 106 23 106 42 0 7 7 13 15
13 8 0 15 7 15 15 0 8 7 15 15 15 8 0 15 8 15 18 0 9 27 40 60 67 40 33 70 70
91 110 17 33 44 83 60 110 16 28 29 56 29 63 0 6 9 21 20 32 11 11 20 31 20
45 0 14 5 25 10 25 6 0 10 6 10 13 0 6 6 24 14 39 8 14 17 50 21 80 4 29 11
58 16 64 6 7 12 36 16 65 4 30 14 60 25 71 10 10 18 24 18 32 0 8 6 27 14 43
8 15 26 54 41 86 15 31 31 57 35 57 5 0 19 23 31 50 12 28 28 50 35 50 6 0 15
8 18 18 7 19 26 53 42 73 6 8 16 32 22 54 7 22 29 62 50 89 20 27 42 58 48 68
14 24 71 63 104 71 14 3 50 13 80 22 31 9 69 13 88 10 42 -8 104 -39 127 -65
10 -11 23 -20 30 -20 13 0 72 -59 90 -92 15 -26 43 -82 55 -113 5 -11 12 -44
15 -72 4 -29 11 -55 16 -59 5 -3 9 -43 9 -90 0 -46 4 -92 9 -102 23 -45 31
-127 31 -317 0 -130 -4 -205 -10 -205 -5 0 -10 -15 -10 -34 0 -19 -4 -38 -10
-41 -5 -3 -10 -24 -10 -46 0 -21 -5 -39 -10 -39 -7 0 -7 -7 1 -21 10 -20 9
-34 -7 -125 -4 -18 -1 -35 5 -38 6 -4 11 -18 11 -30 0 -13 9 -35 20 -49 11
-14 20 -33 20 -42 0 -10 35 -52 78 -95 74 -75 137 -116 212 -138 52 -15 207
-25 214 -14 3 5 22 13 41 16 19 4 35 11 35 16 0 6 6 10 14 10 7 0 19 7 27 16
7 8 36 27 63 41 170 86 188 118 163 291 -9 59 -25 126 -36 149 -12 23 -21 54
-21 68 0 14 -6 28 -14 31 -7 3 -19 24 -27 47 -7 23 -33 72 -56 109 -24 36 -43
75 -43 86 0 10 -10 23 -22 29 -21 10 -78 100 -78 123 0 5 -18 36 -39 70 -27
41 -39 71 -39 96 0 32 -16 84 -42 135 -5 9 -11 42 -15 75 -4 32 -14 70 -22 83
-10 15 -17 55 -19 106 -2 45 -6 88 -9 96 -4 12 5 111 22 224 3 22 11 49 18 60
7 11 13 36 13 55 1 38 69 187 96 209 9 7 16 18 16 23 0 6 21 33 46 62 26 28
51 62 57 76 5 14 13 34 17 45 30 74 67 139 96 167 19 18 34 41 34 50 0 9 4 19
9 22 5 3 12 18 16 33 3 15 14 38 24 52 16 24 71 158 71 173 0 4 13 27 29 50
20 30 33 67 41 118 7 41 16 80 21 86 19 24 39 153 39 255 0 83 4 114 19 145
14 29 18 55 16 99 -9 162 -18 241 -26 250 -5 5 -9 15 -9 23 0 13 -11 42 -44
112 -6 14 -16 28 -23 33 -7 4 -15 23 -19 42 -14 77 -33 109 -114 191 -45 46
-86 84 -90 84 -5 0 -15 7 -24 15 -29 29 -121 85 -139 85 -10 0 -30 9 -44 20
-14 11 -35 20 -47 20 -11 1 -32 7 -46 15 -14 8 -37 14 -52 15 -15 0 -29 4 -32
9 -8 13 -113 32 -271 48 -82 9 -219 9 -255 -1 -14 -3 -45 -10 -70 -14 -97 -18
-300 -148 -300 -193 0 -8 -11 -26 -25 -39 -42 -40 -67 -123 -61 -205 7 -102
21 -186 36 -220 57 -130 93 -188 170 -275 67 -75 140 -168 140 -178 0 -5 9
-17 20 -27 11 -10 20 -21 20 -25 0 -7 39 -77 72 -128 31 -50 46 -82 53 -114 4
-18 11 -37 15 -43 15 -20 23 -82 27 -214 3 -86 0 -138 -6 -144 -6 -6 -11 -20
-11 -32 0 -12 -4 -25 -8 -31 -5 -5 -16 -31 -26 -59 -10 -27 -24 -63 -33 -80
-18 -34 -122 -145 -137 -145 -5 0 -17 -6 -25 -13 -32 -26 -88 -37 -208 -39
-87 -2 -125 1 -134 10 -7 6 -25 12 -39 12 -20 0 -44 18 -93 69 -37 38 -67 76
-67 84 0 8 -6 20 -14 26 -8 6 -16 26 -19 44 -2 18 -9 46 -15 62 -6 17 -16 63
-23 103 -7 39 -16 72 -21 72 -4 0 -8 22 -8 48 0 27 -3 52 -7 56 -8 7 -13 92
-19 296 -2 75 1 116 12 143 11 31 15 91 15 275 0 131 -5 252 -10 271 -6 19 -8
38 -5 42 3 5 -4 26 -14 47 -29 54 -52 108 -52 121 0 6 -4 11 -10 11 -6 0 -10
28 -10 64 0 59 -3 68 -42 120 -23 31 -45 56 -50 56 -4 0 -8 6 -8 13 0 24 -105
114 -176 150 -57 29 -83 37 -126 37 -30 0 -57 -3 -61 -6z"/>
<path d="M1300 6011 c-105 -18 -117 -22 -200 -59 -25 -11 -59 -25 -76 -32 -34
-12 -144 -117 -144 -136 0 -7 -19 -32 -42 -57 -53 -54 -78 -99 -78 -137 0 -16
-4 -32 -10 -35 -13 -8 -44 -78 -69 -156 -14 -44 -15 -275 -1 -284 6 -3 10 -23
10 -44 0 -20 9 -56 20 -79 11 -22 20 -57 20 -76 0 -19 7 -41 15 -50 8 -8 15
-30 15 -50 0 -19 4 -37 9 -41 14 -8 41 -65 41 -87 0 -10 5 -18 10 -18 6 0 10
-7 10 -15 0 -8 5 -15 10 -15 6 0 25 -30 42 -66 35 -72 114 -152 183 -183 22
-10 56 -36 75 -59 69 -82 90 -110 90 -121 0 -6 4 -11 8 -11 17 0 152 -223 152
-251 0 -5 11 -33 25 -61 14 -29 23 -58 20 -66 -2 -7 -1 -20 4 -30 35 -69 36
-77 36 -283 -1 -135 -5 -212 -12 -220 -10 -13 -23 -86 -23 -137 0 -13 -9 -42
-20 -65 -11 -23 -23 -59 -27 -80 -3 -20 -10 -40 -14 -43 -5 -3 -9 -29 -9 -59
0 -30 -5 -57 -10 -60 -6 -3 -10 -16 -10 -29 0 -12 -5 -27 -10 -32 -14 -14 -7
-379 8 -449 6 -27 15 -76 20 -108 5 -32 14 -63 20 -69 7 -7 12 -20 12 -30 0
-10 5 -18 10 -18 6 0 10 -5 10 -12 0 -7 30 -72 66 -145 56 -112 73 -139 112
-169 25 -19 57 -37 71 -41 14 -3 44 -21 67 -40 23 -18 47 -33 53 -33 12 0 71
-16 161 -45 59 -19 372 -17 392 3 6 6 24 12 38 12 27 0 79 31 144 87 22 18 45
33 52 33 8 0 28 13 46 28 18 16 51 41 73 55 50 34 185 166 185 182 0 7 18 33
40 58 22 25 40 49 40 54 0 6 9 18 20 28 11 10 20 24 20 32 0 7 4 21 9 31 5 9
19 40 31 67 12 28 26 58 31 67 5 10 9 38 9 62 0 25 4 48 10 51 6 3 10 25 10
49 0 24 5 58 11 75 9 24 9 47 0 88 -6 32 -7 61 -2 67 4 6 11 46 15 89 5 64 11
86 36 122 41 60 70 80 147 104 73 23 113 26 176 12 23 -6 58 -13 78 -16 26 -4
52 -21 95 -63 87 -84 148 -153 180 -203 16 -24 31 -46 35 -49 3 -3 34 -61 68
-130 34 -69 73 -139 87 -157 13 -17 24 -36 24 -42 0 -5 8 -24 17 -43 31 -62
33 -68 33 -89 0 -12 11 -37 25 -55 14 -18 25 -36 25 -39 0 -10 55 -87 84 -118
14 -15 26 -32 26 -37 0 -5 34 -35 75 -66 72 -54 78 -57 162 -67 107 -13 267 2
337 32 26 12 61 21 76 21 16 0 32 4 35 10 7 11 110 60 126 60 5 0 37 18 69 40
32 22 65 40 72 40 7 0 30 11 50 25 20 14 41 25 46 25 13 0 171 96 206 125 16
14 35 25 42 25 6 0 14 6 17 13 3 7 47 43 99 80 82 58 188 156 188 174 0 3 16
23 35 44 19 22 35 46 35 54 0 18 10 32 64 89 21 22 52 62 68 88 16 26 43 58
60 69 17 12 43 36 58 53 99 110 121 139 161 206 24 42 52 92 63 112 10 21 27
46 37 57 10 10 21 31 25 46 4 15 13 29 20 32 8 3 14 18 14 34 0 16 5 29 10 29
6 0 10 7 10 15 0 7 6 18 13 22 18 12 37 49 37 73 0 11 6 31 14 43 20 31 35
120 43 256 7 131 7 109 1 411 -5 220 -23 360 -49 375 -5 4 -9 17 -9 31 0 14
-7 27 -15 30 -8 4 -15 17 -15 30 0 13 -3 24 -8 24 -4 0 -13 15 -21 33 -7 17
-24 49 -37 69 -13 21 -24 43 -24 50 0 7 -17 38 -38 68 -21 30 -41 63 -45 73
-4 11 -16 21 -28 24 -12 4 -18 11 -15 20 8 19 -18 66 -59 109 -19 20 -35 40
-35 45 0 6 -9 20 -20 32 -11 11 -28 38 -37 59 -9 21 -23 38 -31 38 -18 0 -42
25 -42 43 0 7 -19 28 -42 45 -24 17 -54 41 -68 54 -36 33 -87 68 -99 68 -6 0
-14 6 -18 13 -4 7 -28 21 -53 32 -25 11 -66 34 -92 52 -26 18 -53 33 -60 33
-7 0 -24 9 -38 20 -14 11 -32 20 -41 20 -8 0 -24 7 -35 15 -10 8 -31 15 -46
15 -15 0 -29 4 -32 9 -3 5 -37 12 -76 16 -39 4 -72 11 -75 15 -3 5 -23 11 -45
15 -22 4 -42 11 -46 16 -3 5 -18 9 -33 9 -15 0 -32 5 -38 11 -7 7 -35 9 -74 6
-77 -7 -88 -9 -114 -24 -11 -6 -40 -14 -65 -18 -24 -4 -51 -11 -60 -16 -38
-21 -95 -39 -126 -39 -18 0 -36 -4 -39 -10 -3 -5 -19 -10 -34 -10 -39 0 -88
-19 -95 -36 -3 -8 -12 -14 -19 -14 -8 0 -34 -16 -58 -35 -24 -19 -51 -35 -60
-35 -9 0 -22 -7 -29 -15 -7 -8 -17 -15 -22 -15 -11 0 -31 -16 -67 -52 -77 -78
-117 -154 -137 -258 -1 -8 -7 -32 -13 -52 -26 -91 -31 -117 -31 -178 0 -79 20
-135 80 -220 25 -36 81 -119 125 -185 43 -66 88 -129 100 -140 27 -25 68 -89
114 -180 19 -38 39 -71 43 -73 4 -2 8 -9 8 -17 0 -7 7 -18 14 -25 8 -6 20 -28
27 -48 6 -20 27 -51 45 -70 27 -28 34 -43 34 -74 0 -23 5 -41 14 -44 28 -11
27 -145 -2 -299 -10 -47 -16 -67 -48 -142 -8 -17 -14 -38 -14 -47 0 -8 -12
-23 -27 -33 -16 -10 -38 -26 -49 -38 -62 -59 -132 -100 -189 -111 -19 -3 -38
-10 -41 -15 -7 -12 -191 -12 -198 0 -4 5 -24 12 -45 16 -22 3 -49 17 -62 31
-12 13 -28 24 -34 24 -6 0 -26 16 -45 35 -19 19 -41 35 -47 35 -7 0 -13 6 -13
13 0 7 -13 26 -30 42 -37 35 -140 241 -140 281 0 16 -7 49 -16 74 -9 25 -17
63 -19 85 -4 57 -21 114 -43 144 -10 14 -27 41 -36 60 -21 40 -128 151 -146
151 -8 0 -22 7 -32 17 -16 14 -23 15 -61 3 -81 -24 -142 -45 -147 -50 -3 -3
-29 -18 -59 -33 -29 -16 -73 -48 -98 -72 l-45 -45 5 -97 c2 -54 8 -116 12
-138 13 -69 8 -197 -10 -260 -10 -33 -22 -78 -29 -100 -6 -22 -21 -53 -33 -69
-13 -16 -23 -33 -23 -39 0 -20 -113 -117 -136 -117 -13 0 -26 -5 -29 -10 -10
-15 -227 2 -250 20 -5 4 -29 11 -52 15 -24 4 -46 11 -49 17 -3 5 -31 26 -61
45 -31 19 -58 44 -60 54 -3 10 -9 19 -14 19 -4 0 -17 19 -29 43 -12 23 -34 65
-50 94 -16 30 -30 72 -33 102 -3 28 -9 57 -14 64 -19 24 -36 194 -35 342 2
224 29 397 90 565 13 35 43 223 52 315 4 55 11 134 15 175 7 78 -4 142 -42
245 -22 60 -65 136 -88 155 -10 8 -21 23 -26 35 -18 39 -93 147 -115 165 -66
53 -245 149 -284 152 -3 0 -22 9 -42 19 -21 10 -45 19 -56 19 -10 0 -22 4 -28
10 -19 19 -214 20 -324 1z m2198 -1772 c38 -13 93 -96 118 -178 10 -31 21 -60
25 -66 4 -5 10 -34 14 -62 4 -29 11 -53 15 -53 4 0 11 -21 14 -47 3 -27 8 -70
12 -97 6 -48 -3 -96 -32 -163 -10 -25 -20 -33 -39 -33 -40 0 -77 49 -145 190
-4 8 -17 35 -29 58 -11 24 -21 54 -21 66 0 12 -7 31 -15 42 -8 10 -15 31 -15
45 0 15 -7 33 -16 40 -14 11 -16 28 -11 105 6 102 24 150 59 157 13 2 26 5 29
6 3 0 20 -4 37 -10z m-228 -97 c0 -5 8 -17 19 -28 31 -33 41 -60 48 -124 3
-33 10 -63 14 -66 12 -7 11 -78 -1 -90 -6 -6 -6 -22 -1 -39 4 -17 4 -39 0 -50
-4 -11 -15 -63 -24 -115 -23 -133 -82 -251 -124 -250 -44 1 -89 72 -112 178
-16 73 -17 99 -9 171 5 47 12 113 15 146 4 55 32 156 48 172 4 3 7 13 7 21 0
8 9 30 21 48 18 29 26 34 60 34 21 0 39 -4 39 -8z"/>
<path d="M3460 4086 c0 -30 4 -57 9 -61 6 -3 13 -27 17 -53 3 -26 10 -51 14
-57 4 -5 15 -37 25 -70 22 -74 83 -193 89 -174 13 39 12 120 0 130 -8 6 -14
23 -14 37 0 24 -16 87 -46 182 -8 25 -14 52 -14 61 0 20 -41 59 -63 59 -14 0
-17 -10 -17 -54z"/>
<path d="M3232 4010 c-6 -11 -12 -28 -12 -38 0 -9 -6 -26 -14 -37 -7 -11 -16
-40 -19 -65 -4 -25 -11 -83 -17 -130 -6 -47 -9 -105 -6 -130 5 -48 26 -100 39
-100 17 0 42 79 49 160 5 47 11 110 14 140 6 64 6 156 0 185 -3 11 -5 23 -5
28 -2 13 -16 7 -29 -13z"/>
</g>
</svg>
