<svg width="24" height="24" viewBox="0 0 24 24" fill="none" xmlns="http://www.w3.org/2000/svg">
<path d="M12 0C9.62663 0 7.30655 0.703788 5.33316 2.02236C3.35977 3.34094 1.8217 5.21508 0.913451 7.4078C0.00519943 9.60051 -0.232441 12.0133 0.230582 14.3411C0.693604 16.6689 1.83649 18.807 3.51472 20.4853C5.19295 22.1635 7.33115 23.3064 9.65892 23.7694C11.9867 24.2324 14.3995 23.9948 16.5922 23.0865C18.7849 22.1783 20.6591 20.6402 21.9776 18.6668C23.2962 16.6935 24 14.3734 24 12C24 8.8174 22.7357 5.76515 20.4853 3.51472C18.2348 1.26428 15.1826 0 12 0ZM7 20.645V20C7 18.6739 7.52679 17.4021 8.46447 16.4645C9.40215 15.5268 10.6739 15 12 15C13.3261 15 14.5979 15.5268 15.5355 16.4645C16.4732 17.4021 17 18.6739 17 20V20.645C15.483 21.5321 13.7573 21.9996 12 21.9996C10.2427 21.9996 8.51699 21.5321 7 20.645ZM9 10C9 9.40665 9.17595 8.82664 9.50559 8.33329C9.83524 7.83994 10.3038 7.45542 10.852 7.22836C11.4001 7.0013 12.0033 6.94189 12.5853 7.05764C13.1672 7.1734 13.7018 7.45912 14.1213 7.87868C14.5409 8.29823 14.8266 8.83278 14.9424 9.41473C15.0581 9.99667 14.9987 10.5999 14.7716 11.148C14.5446 11.6962 14.1601 12.1648 13.6667 12.4944C13.1734 12.8241 12.5933 13 12 13C11.2044 13 10.4413 12.6839 9.87868 12.1213C9.31607 11.5587 9 10.7956 9 10ZM18.945 19.175C18.8101 18.0418 18.4002 16.9587 17.751 16.0201C17.1017 15.0815 16.2328 14.3159 15.22 13.79C15.7754 13.3265 16.2225 12.747 16.53 12.0923C16.8375 11.4375 16.9979 10.7234 17 10C17 8.67392 16.4732 7.40215 15.5355 6.46446C14.5979 5.52678 13.3261 5 12 5C10.6739 5 9.40215 5.52678 8.46447 6.46446C7.52679 7.40215 7 8.67392 7 10C7.00207 10.7234 7.16249 11.4375 7.47 12.0923C7.77751 12.747 8.22465 13.3265 8.78 13.79C7.76718 14.3159 6.8983 15.0815 6.24905 16.0201C5.59981 16.9587 5.18989 18.0418 5.055 19.175C3.62115 17.7909 2.63353 16.01 2.21887 14.0608C1.80421 12.1116 1.98142 10.0829 2.72775 8.23503C3.47409 6.38719 4.75552 4.80449 6.40762 3.69C8.05972 2.57552 10.0071 1.98007 12 1.98007C13.9929 1.98007 15.9403 2.57552 17.5924 3.69C19.2445 4.80449 20.5259 6.38719 21.2723 8.23503C22.0186 10.0829 22.1958 12.1116 21.7811 14.0608C21.3665 16.01 20.3789 17.7909 18.945 19.175Z" fill="black"/>
</svg>
